#!OML:ASF H:\Terrain\Walking\May29\JustinRory\Justin.ASF
:FULLY-SPECIFIED
:DEGREES
148
root 9.04737 10.4278 10.8717 -203.14 -76.4524 191.129 
lowerback 49.5245 -1.13537 2.58895 
upperback 13.0475 -3.08771 1.05297 
thorax -5.87774 -2.72338 1.29192 
lowerneck -13.1935 20.5637 -6.88424 
upperneck 9.6233 30.4983 -12.6957 
head 6.11116 13.7192 -0.0571484 
rclavicle 2.40529e-14 -2.90226e-14 
rhumerus -40.2921 18.6413 -101.331 
rradius 46.4423 
rwrist -8.045 
rhand -35.4665 74.4399 
rfingers 7.12502 
rthumb -8.59501 44.6349 
lclavicle 2.40529e-14 -2.90226e-14 
lhumerus -45.5873 -8.64424 98.8094 
lradius 44.0306 
lwrist 39.3175 
lhand 40.2638 33.3651 
lfingers 7.12502 
lthumb 62.6135 44.0736 
rfemur -66.0205 -12.0781 0.475545 
rtibia 108.229 
rfoot -18.6574 3.62766 
rtoes -5.78154 
lfemur -57.2371 17.6437 17.7802 
ltibia 97.9956 
lfoot -18.9395 -8.04227 
ltoes -33.8499 
149
root 8.98594 10.4141 10.865 -201.9 -76.3408 189.483 
lowerback 49.764 -1.24907 2.51256 
upperback 13.04 -3.29836 0.849955 
thorax -5.92683 -2.82188 1.20276 
lowerneck -13.0285 20.5842 -7.30172 
upperneck 9.15988 30.495 -12.7821 
head 5.89186 13.7568 -0.0984787 
rclavicle 2.0276e-14 -2.20651e-14 
rhumerus -40.4567 18.7211 -101.36 
rradius 46.209 
rwrist -7.16295 
rhand -37.8032 73.6821 
rfingers 7.12502 
rthumb -10.8494 43.9824 
lclavicle 2.0276e-14 -2.20651e-14 
lhumerus -45.8663 -8.92601 98.7688 
lradius 43.8808 
lwrist 39.0048 
lhand 39.7648 32.1273 
lfingers 7.12502 
lthumb 62.1999 43.37 
rfemur -65.4732 -12.4874 -0.367602 
rtibia 108.336 
rfoot -18.8668 4.69891 
rtoes -14.8609 
lfemur -56.5389 16.9378 17.8609 
ltibia 98.3802 
lfoot -18.889 -7.78677 
ltoes -31.1349 
150
root 8.93415 10.4046 10.8357 -190.339 -76.1436 177.201 
lowerback 50.0788 -0.226117 -0.391905 
upperback 13.0958 -3.58941 0.299904 
thorax -5.87693 -3.01495 2.08521 
lowerneck -13.2512 20.7816 -7.31496 
upperneck 9.15625 30.8291 -13.0546 
head 5.98171 13.8812 -0.103541 
rclavicle 7.55382e-15 1.19271e-14 
rhumerus -40.8221 18.9143 -101.407 
rradius 46.1883 
rwrist -4.9445 
rhand -41.576 73.6338 
rfingers 7.12502 
rthumb -14.4866 44.1595 
lclavicle 7.55382e-15 1.19271e-14 
lhumerus -46.1135 -8.92001 98.7512 
lradius 43.809 
lwrist 38.9557 
lhand 38.849 31.11 
lfingers 7.12502 
lthumb 61.4344 43.2908 
rfemur -65.5005 -12.7621 -3.92542 
rtibia 108.515 
rfoot -19.0218 6.81136 
rtoes -18.3124 
lfemur -55.1731 16.3327 15.2624 
ltibia 98.6125 
lfoot -19.0988 -6.59101 
ltoes -29.8672 
151
root 8.86861 10.4032 10.7906 -186.359 -75.6007 172.966 
lowerback 49.8454 0.380231 -0.956743 
upperback 13.47 -3.27171 -0.292317 
thorax -5.45619 -2.87881 1.56459 
lowerneck -14.0038 20.5758 -6.10516 
upperneck 9.6867 30.5753 -13.0435 
head 6.4296 13.6921 -0.0913706 
rclavicle -8.74653e-15 4.37326e-15 
rhumerus -40.619 17.4899 -101.567 
rradius 46.3274 
rwrist -2.85164 
rhand -44.9269 72.8238 
rfingers 7.12502 
rthumb -17.7133 43.6106 
lclavicle -8.74653e-15 4.37326e-15 
lhumerus -46.1774 -10.925 98.5909 
lradius 43.6975 
lwrist 39.0512 
lhand 38.1582 30.8921 
lfingers 7.12502 
lthumb 60.8517 43.7461 
rfemur -65.4132 -12.6493 -5.46226 
rtibia 108.618 
rfoot -19.2139 9.76011 
rtoes -13.0992 
lfemur -54.0543 16.1374 14.6077 
ltibia 98.6178 
lfoot -19.3229 -5.49114 
ltoes -31.3081 
152
root 8.80858 10.4036 10.7145 -184.094 -75.0202 170.771 
lowerback 49.8561 0.992841 -1.99636 
upperback 13.3512 -3.04702 -0.347854 
thorax -5.56241 -2.79338 1.90357 
lowerneck -14.2664 20.5645 -6.2063 
upperneck 9.69531 30.5652 -12.7646 
head 6.41119 13.695 0.00959136 
rclavicle 5.56597e-15 1.19271e-15 
rhumerus -41.0596 17.2561 -101.571 
rradius 46.429 
rwrist -1.9181 
rhand -46.2136 70.1226 
rfingers 7.12502 
rthumb -18.9511 41.0259 
lclavicle 5.56597e-15 1.19271e-15 
lhumerus -46.6619 -11.6933 98.9586 
lradius 43.7931 
lwrist 39.9547 
lhand 35.1048 30.3302 
lfingers 7.12502 
lthumb 58.2284 45.8449 
rfemur -65.6293 -12.5883 -6.07221 
rtibia 108.798 
rfoot -19.6056 11.4808 
rtoes -9.69628 
lfemur -53.0477 16.318 14.4704 
ltibia 98.4528 
lfoot -19.4703 -4.58833 
ltoes -33.6627 
153
root 8.77045 10.3909 10.6133 -185.812 -74.4398 172.946 
lowerback 50.1606 1.23031 -3.13223 
upperback 12.8199 -3.21112 0.2948 
thorax -6.10716 -2.90101 3.21243 
lowerneck -14.5017 20.91 -8.23288 
upperneck 9.20229 31.1792 -12.1592 
head 5.92131 14.0356 0.340528 
rclavicle 5.96354e-15 2.54444e-14 
rhumerus -41.9562 18.7201 -100.999 
rradius 46.6344 
rwrist -1.30299 
rhand -45.9812 66.3303 
rfingers 7.12502 
rthumb -18.7276 37.2118 
lclavicle 5.96354e-15 2.54444e-14 
lhumerus -47.0899 -9.88022 99.1775 
lradius 43.8677 
lwrist 40.2282 
lhand 33.5938 31.0428 
lfingers 7.12502 
lthumb 56.9057 47.7071 
rfemur -66.0952 -12.3228 -4.76858 
rtibia 109.002 
rfoot -20.8664 10.5816 
rtoes -14.8928 
lfemur -52.6594 17.0438 15.771 
ltibia 98.3365 
lfoot -19.379 -4.48155 
ltoes -35.5087 
154
root 8.73319 10.3705 10.5662 -188.324 -73.6838 175.696 
lowerback 50.3458 1.31369 -2.16474 
upperback 12.6947 -2.68282 -0.0654218 
thorax -6.34733 -2.60074 2.17385 
lowerneck -14.3151 20.6663 -6.90015 
upperneck 9.11628 30.6177 -12.1423 
head 6.02695 13.8214 0.174138 
rclavicle -2.66371e-14 7.95139e-16 
rhumerus -41.9547 16.4906 -100.445 
rradius 47.291 
rwrist 0.786193 
rhand -47.4172 62.506 
rfingers 7.12502 
rthumb -20.1084 33.5266 
lclavicle -2.66371e-14 7.95139e-16 
lhumerus -47.9666 -12.1401 99.2127 
lradius 44.4516 
lwrist 42.1349 
lhand 30.7186 32.8282 
lfingers 7.12502 
lthumb 54.3518 51.4256 
rfemur -66.3376 -12.0161 -3.28655 
rtibia 109.164 
rfoot -22.1415 9.70454 
rtoes -19.0537 
lfemur -52.4606 17.6172 17.3542 
ltibia 98.5787 
lfoot -18.9979 -5.40609 
ltoes -31.6858 
155
root 8.68874 10.3476 10.5369 -189.014 -73.0349 176.541 
lowerback 50.4391 1.04194 -3.52601 
upperback 12.6624 -3.66601 0.625089 
thorax -6.25637 -3.16193 3.94619 
lowerneck -15.0452 21.4249 -9.94398 
upperneck 8.07002 32.0043 -12.1 
head 5.40554 14.506 0.508648 
rclavicle -8.50798e-14 -4.37326e-15 
rhumerus -42.4917 20.0551 -99.2757 
rradius 48.501 
rwrist 3.1236 
rhand -50.1303 57.5096 
rfingers 7.12502 
rthumb -22.7141 28.8265 
lclavicle -8.50798e-14 -4.37326e-15 
lhumerus -47.608 -8.51416 99.7643 
lradius 44.8852 
lwrist 43.9663 
lhand 25.4761 34.4256 
lfingers 7.12502 
lthumb 49.5979 55.8569 
rfemur -66.4916 -12.1493 -2.49012 
rtibia 109.379 
rfoot -23.099 10.1443 
rtoes -17.5543 
lfemur -52.2774 17.8229 18.2829 
ltibia 98.8729 
lfoot -18.5301 -5.90307 
ltoes -28.1494 
156
root 8.64185 10.3259 10.5019 -189.756 -72.3441 177.425 
lowerback 50.723 1.19614 -2.01049 
upperback 12.5015 -2.83332 -0.368911 
thorax -6.62487 -2.65687 1.85206 
lowerneck -14.4465 20.8669 -6.83918 
upperneck 8.30977 30.753 -12.025 
head 5.77454 13.9849 0.168466 
rclavicle 3.93594e-14 9.54166e-15 
rhumerus -42.3944 15.1268 -98.7511 
rradius 49.4558 
rwrist 6.3711 
rhand -51.7354 53.1705 
rfingers 7.12502 
rthumb -24.2538 24.6845 
lclavicle 3.93594e-14 9.54166e-15 
lhumerus -48.6698 -12.4934 99.4875 
lradius 45.0239 
lwrist 45.884 
lhand 22.1186 35.9743 
lfingers 7.12502 
lthumb 46.5033 58.8563 
rfemur -66.4992 -12.2211 -1.63022 
rtibia 109.541 
rfoot -23.9947 10.6032 
rtoes -16.1766 
lfemur -51.7296 17.9058 19.2634 
ltibia 98.9684 
lfoot -18.185 -5.41397 
ltoes -33.1419 
157
root 8.60586 10.3189 10.4485 -189.002 -71.7196 176.69 
lowerback 51.1946 1.39134 -3.0282 
upperback 12.3669 -3.15911 -0.19949 
thorax -6.77274 -2.85315 2.64734 
lowerneck -15.193 21.0648 -7.95261 
upperneck 8.12363 31.2146 -11.7638 
head 5.64367 14.1882 0.414498 
rclavicle -2.66371e-14 2.42517e-14 
rhumerus -42.5416 16.0394 -97.6656 
rradius 50.2784 
rwrist 7.72181 
rhand -52.3996 50.288 
rfingers 7.12502 
rthumb -24.8905 21.8886 
lclavicle -2.66371e-14 2.42517e-14 
lhumerus -48.4305 -11.3265 99.4837 
lradius 44.9278 
lwrist 45.9256 
lhand 21.3996 36.822 
lfingers 7.12502 
lthumb 45.8366 59.9843 
rfemur -66.6705 -12.0052 -1.43978 
rtibia 109.755 
rfoot -24.4736 11.1306 
rtoes -14.8457 
lfemur -51.1652 17.7282 19.8355 
ltibia 99.0387 
lfoot -17.436 -5.51541 
ltoes -37.3674 
